# xmcd
#
# Track frame offsets: 
#        182
#        9015
#        21613
#        38390
#        39572
#        52772
#        70619
#        85373
#        91811
#        102860
#        119051
#        121946
#        138048
#        141542
#        158409
#        172661
#        188125
#        201634
#        208255
#
# Disc length: 2919 seconds
#
# Revision: 0
# Processed by: cddbd v1.5.2PL0 Copyright (c) Steve Scherf et al.
# Submitted via: ExactAudioCopy v0.95b3
#
DISCID=f80b6513
DTITLE=Larry Gatlin and The Gatlin Brothers - Pilgrimage
DYEAR=2009
DGENRE=Country
TTITLE0=Narrative - The Pilgrim: I Never Had A Brother
TTITLE1=Sweet Becky Walker
TTITLE2=Penny Annie
TTITLE3=Narrative - The Pilgrim: My Own Personal Pilgrimage
TTITLE4=Black Gold
TTITLE5=Come Back To Texas
TTITLE6=Handsome Young Gringo
TTITLE7=Narrative - The Pilgrim: Country Music Will Never Be The Same
TTITLE8=Johnny Cash Is Dead (And His House Burned Down)
TTITLE9=I've Done Enough Dyin' Today (with Lari White)
TTITLE10=Narrative - The Pilgrim: Now It's Our Turn
TTITLE11=Say, Nashville - Whadda Ya Say
TTITLE12=Narrative - The Pilgrim: He Was There In Spirit
TTITLE13=If I Ever See You Or Utah Again
TTITLE14=He Bought Her Back (with The Gaither Vocal Band)
TTITLE15=Americans, That's Who
TTITLE16=Fill Me
TTITLE17=Narrative - The Pilgrim: Little Tin Cup
TTITLE18=A Man Can't Live With A Broken Heart Too Long
EXTD=
EXTT0=
EXTT1=
EXTT2=
EXTT3=
EXTT4=
EXTT5=
EXTT6=
EXTT7=
EXTT8=
EXTT9=
EXTT10=
EXTT11=
EXTT12=
EXTT13=
EXTT14=
EXTT15=
EXTT16=
EXTT17=
EXTT18=
PLAYORDER=
